<?xml version="1.0" encoding="UTF-8" standalone="no"?>
<!-- Created with Inkscape (http://www.inkscape.org/) -->

<svg
   xmlns:dc="http://purl.org/dc/elements/1.1/"
   xmlns:cc="http://creativecommons.org/ns#"
   xmlns:rdf="http://www.w3.org/1999/02/22-rdf-syntax-ns#"
   xmlns:svg="http://www.w3.org/2000/svg"
   xmlns="http://www.w3.org/2000/svg"
   xmlns:sodipodi="http://sodipodi.sourceforge.net/DTD/sodipodi-0.dtd"
   xmlns:inkscape="http://www.inkscape.org/namespaces/inkscape"
   version="1.1"
   id="svg815"
   xml:space="preserve"
   width="825.03333"
   height="794.57733"
   viewBox="0 0 825.03333 794.57733"
   sodipodi:docname="Projecting.ai.svg"
   inkscape:version="0.92.4 (5da689c313, 2019-01-14)"
   inkscape:export-filename="/home/nat/Downloads/721-Archive/images/Projecting/Projecting.png"
   inkscape:export-xdpi="96"
   inkscape:export-ydpi="96"><metadata
     id="metadata821"><rdf:RDF><cc:Work
         rdf:about=""><dc:format>image/svg+xml</dc:format><dc:type
           rdf:resource="http://purl.org/dc/dcmitype/StillImage" /><dc:title></dc:title></cc:Work></rdf:RDF></metadata><defs
     id="defs819"><marker
       inkscape:stockid="Arrow1Lstart"
       orient="auto"
       refY="0.0"
       refX="0.0"
       id="marker1247"
       style="overflow:visible"
       inkscape:isstock="true"><path
         id="path1245"
         d="M 0.0,0.0 L 5.0,-5.0 L -12.5,0.0 L 5.0,5.0 L 0.0,0.0 z "
         style="fill-rule:evenodd;stroke:#000000;stroke-width:1pt;stroke-opacity:1;fill:#000000;fill-opacity:1"
         transform="scale(0.8) translate(12.5,0)" /></marker><marker
       inkscape:stockid="Arrow1Lstart"
       orient="auto"
       refY="0.0"
       refX="0.0"
       id="Arrow1Lstart"
       style="overflow:visible"
       inkscape:isstock="true"><path
         id="path969"
         d="M 0.0,0.0 L 5.0,-5.0 L -12.5,0.0 L 5.0,5.0 L 0.0,0.0 z "
         style="fill-rule:evenodd;stroke:#000000;stroke-width:1pt;stroke-opacity:1;fill:#000000;fill-opacity:1"
         transform="scale(0.8) translate(12.5,0)" /></marker><clipPath
       clipPathUnits="userSpaceOnUse"
       id="clipPath831"><path
         d="M 0,595.933 H 618.775 V 0 H 0 Z"
         id="path829"
         inkscape:connector-curvature="0" /></clipPath></defs><sodipodi:namedview
     pagecolor="#ffffff"
     bordercolor="#666666"
     borderopacity="1"
     objecttolerance="10"
     gridtolerance="10"
     guidetolerance="10"
     inkscape:pageopacity="0"
     inkscape:pageshadow="2"
     inkscape:window-width="1914"
     inkscape:window-height="1040"
     id="namedview817"
     showgrid="false"
     inkscape:zoom="0.75909803"
     inkscape:cx="268.89125"
     inkscape:cy="283.00768"
     inkscape:window-x="0"
     inkscape:window-y="18"
     inkscape:window-maximized="0"
     inkscape:current-layer="g825" /><g
     id="g823"
     inkscape:groupmode="layer"
     inkscape:label="Projecting"
     transform="matrix(1.3333333,0,0,-1.3333333,0,794.57733)"><g
       id="g825"
       transform="translate(3.7050552,-5.1870772)"><g
         id="g827"
         clip-path="url(#clipPath831)"
         transform="translate(-27.911416,-22.724338)"><g
           id="g833"
           transform="translate(532.3367,456.2611)"><path
             d="m 0,0 c 0,-60.974 -76.513,-110.404 -170.897,-110.404 -94.383,0 -170.896,49.43 -170.896,110.404 0,60.974 76.513,110.404 170.896,110.404 C -76.513,110.404 0,60.974 0,0 Z"
             style="fill:none;stroke:#231f20;stroke-width:2;stroke-linecap:butt;stroke-linejoin:miter;stroke-miterlimit:10;stroke-dasharray:none;stroke-opacity:1"
             id="path835"
             inkscape:connector-curvature="0" /></g><g
           id="g837"
           transform="translate(586.447,564.5399)"><path
             d="M 0,0 C 3.217,0 3.223,5 0,5 -3.217,5 -3.223,0 0,0"
             style="fill:#231f20;fill-opacity:1;fill-rule:nonzero;stroke:none"
             id="path839"
             inkscape:connector-curvature="0" /></g><g
           id="g841"
           transform="translate(23.947,564.5399)"><path
             d="M 0,0 C 3.217,0 3.223,5 0,5 -3.217,5 -3.223,0 0,0"
             style="fill:#231f20;fill-opacity:1;fill-rule:nonzero;stroke:none"
             id="path843"
             inkscape:connector-curvature="0" /></g><g
           id="g845"
           transform="translate(121.447,567.0399)"><path
             d="m 0,0 h 15 75 75 75 75 75 75 15"
             style="fill:none;stroke:#231f20;stroke-width:1;stroke-linecap:round;stroke-linejoin:round;stroke-miterlimit:10;stroke-dasharray:none;stroke-opacity:1"
             id="path847"
             inkscape:connector-curvature="0" /></g><g
           id="g849"
           transform="translate(368.947,164.3381)"><path
             d="m 0,0 -7.5,12.99 -37.5,64.952 -37.5,64.952 -37.5,64.952 -37.5,64.952 -37.5,64.952 -37.5,64.952 -7.5,12.99"
             style="fill:none;stroke:#231f20;stroke-width:1;stroke-linecap:round;stroke-linejoin:round;stroke-miterlimit:10;stroke-dasharray:none;stroke-opacity:1"
             id="path851"
             inkscape:connector-curvature="0" /></g><g
           id="g853"
           transform="translate(593.947,580.0303)"><path
             d="m 0,0 -7.5,-12.99 -37.5,-64.952 -37.5,-64.952 -37.5,-64.952 -37.5,-64.952 -37.5,-64.952 -37.5,-64.952 -7.5,-12.99"
             style="fill:none;stroke:#231f20;stroke-width:1;stroke-linecap:round;stroke-linejoin:round;stroke-miterlimit:10;stroke-dasharray:none;stroke-opacity:1"
             id="path855"
             inkscape:connector-curvature="0" /></g><g
           id="g857"
           transform="translate(16.447,580.0303)"><path
             d="M 0,0 296.25,-513.12"
             style="fill:none;stroke:#231f20;stroke-width:2;stroke-linecap:round;stroke-linejoin:round;stroke-miterlimit:10;stroke-dasharray:none;stroke-opacity:1"
             id="path859"
             inkscape:connector-curvature="0" /></g><g
           id="g861"
           transform="translate(347.8532,153.7834)" /><g
           id="g865"
           transform="translate(343.5735,146.3706)"><path
             d="M 10.3735,17.9677 C -4.7974951,-5.941757 -13.918456,-24.816037 -26.408,-45.74"
             style="fill:none;stroke:#231f20;stroke-width:1.70078743;stroke-linecap:butt;stroke-linejoin:miter;stroke-miterlimit:10;stroke-dasharray:1.70078745, 6.80314978;stroke-dashoffset:0;stroke-opacity:1"
             id="path867"
             inkscape:connector-curvature="0"
             sodipodi:nodetypes="cc" /></g><g
           id="g869"
           transform="translate(315.7755,98.2232)"><path
             d="M 0,0 -1.5,-2.598"
             style="fill:none;stroke:#231f20;stroke-width:1;stroke-linecap:butt;stroke-linejoin:miter;stroke-miterlimit:10;stroke-dasharray:none;stroke-opacity:1"
             id="path871"
             inkscape:connector-curvature="0" /></g><g
           id="g873"
           transform="translate(312.4728,99.909)"><path
             d="M -4.2658372,0 -0.23633831,-5.3515742 6.414,-6.1657994 -6.2339644,-15.741687 Z"
             style="fill:#231f20;fill-opacity:1;fill-rule:nonzero;stroke:none;stroke-width:1.66508222"
             id="path875"
             inkscape:connector-curvature="0" /></g><g
           id="g877"
           transform="translate(109.2866,567.0399)" /><g
           id="g881"
           transform="translate(100.7417,567.0399)" /><g
           id="g885"
           transform="translate(45.2935,567.0399)"><path
             d="M 0,0 H -3"
             style="fill:none;stroke:#231f20;stroke-width:1;stroke-linecap:butt;stroke-linejoin:miter;stroke-miterlimit:10;stroke-dasharray:none;stroke-opacity:1"
             id="path887"
             inkscape:connector-curvature="0" /></g><g
           id="g889"
           transform="translate(45.1021,570.743)"><path
             d="M 0,2.7091616 -2.7238267,-3.703 0,-10.115162 -15.200096,-3.703 Z"
             style="fill:#231f20;fill-opacity:1;fill-rule:nonzero;stroke:none;stroke-width:1.73161268"
             id="path891"
             inkscape:connector-curvature="0" /></g><g
           id="g893"
           transform="translate(305.197,77.4006)"><path
             d="M 0,0 C 3.217,0 3.223,5 0,5 -3.217,5 -3.223,0 0,0"
             style="fill:#231f20;fill-opacity:1;fill-rule:nonzero;stroke:none"
             id="path895"
             inkscape:connector-curvature="0" /></g><g
           id="g897"
           transform="translate(229.8363,207.9292)"><path
             d="M 0,0 C 3.217,0 3.223,5 0,5 -3.217,5 -3.223,0 0,0"
             style="fill:#231f20;fill-opacity:1;fill-rule:nonzero;stroke:none"
             id="path899"
             inkscape:connector-curvature="0" /></g><g
           id="g901"
           transform="translate(393.2113,436.2358)"><path
             d="m 0,0 c 0.323,1.292 0.431,1.688 3.808,1.688 1.077,0 1.364,0 1.364,0.683 0,0.431 -0.395,0.431 -0.573,0.431 -1.186,0 -4.131,-0.108 -5.316,-0.108 -1.078,0 -3.7,0.108 -4.777,0.108 -0.252,0 -0.683,0 -0.683,-0.719 0,-0.395 0.323,-0.395 1.006,-0.395 0.072,0 0.753,0 1.364,-0.072 0.647,-0.072 0.97,-0.108 0.97,-0.573 0,-0.144 -0.036,-0.252 -0.144,-0.683 l -4.812,-19.286 c -0.359,-1.402 -0.431,-1.687 -3.269,-1.687 -0.611,0 -0.97,0 -0.97,-0.719 0,-0.395 0.323,-0.395 0.97,-0.395 H 5.566 c 0.863,0 0.898,0 1.114,0.611 l 2.836,7.758 c 0.144,0.394 0.144,0.466 0.144,0.502 0,0.144 -0.108,0.395 -0.43,0.395 -0.323,0 -0.359,-0.18 -0.611,-0.755 -1.222,-3.303 -2.802,-7.397 -9.014,-7.397 h -3.377 c -0.503,0 -0.575,0 -0.791,0.036 -0.359,0.036 -0.466,0.07 -0.466,0.358 0,0.108 0,0.18 0.178,0.827 l 4.848,19.394"
             style="fill:#000000;fill-opacity:1;fill-rule:nonzero;stroke:none"
             id="path903"
             inkscape:connector-curvature="0" /></g><path
           d="m 408.91,423.044 h 9.977 v 0.952 h -9.977 z"
           style="fill:#000000;fill-opacity:1;fill-rule:nonzero;stroke:none"
           id="path905"
           inkscape:connector-curvature="0" /><g
           id="g907"
           transform="translate(410.7973,417.1528)"><path
             d="m 0,0 c 1.453,1.93 2.706,2.306 3.508,2.306 0.978,0 1.83,-0.727 1.83,-2.431 0,-1.028 -0.552,-3.584 -1.303,-5.037 C 3.408,-6.39 2.18,-7.593 0.902,-7.593 c -1.78,0 -2.23,1.93 -2.23,2.18 0,0.1 0.05,0.277 0.075,0.377 L 0,0.002 m -4.737,-11.105 c -0.175,-0.702 -0.225,-0.902 -1.228,-0.902 -0.325,0 -0.677,0 -0.677,-0.527 0,-0.277 0.225,-0.377 0.352,-0.377 0.652,0 1.478,0.1 2.155,0.1 0.852,0 1.805,-0.1 2.631,-0.1 0.227,0 0.502,0.075 0.502,0.552 0,0.352 -0.35,0.352 -0.652,0.352 -0.552,0 -1.228,0 -1.228,0.3 0,0.125 0.175,0.777 0.277,1.153 0.3,1.328 0.652,2.681 0.927,3.734 0.3,-0.502 1.078,-1.478 2.581,-1.478 3.058,0 6.442,3.383 6.442,7.117 0,2.933 -2.031,4.186 -3.759,4.186 -1.555,0 -2.883,-1.053 -3.559,-1.755 -0.427,1.428 -1.83,1.755 -2.581,1.755 -0.978,0 -1.58,-0.652 -1.981,-1.328 -0.5,-0.853 -0.902,-2.356 -0.902,-2.506 0,-0.327 0.35,-0.327 0.427,-0.327 0.35,0 0.375,0.075 0.55,0.752 0.377,1.455 0.853,2.708 1.83,2.708 0.653,0 0.828,-0.552 0.828,-1.228 0,-0.277 -0.05,-0.602 -0.075,-0.752 l -2.858,-11.43 z"
             style="fill:#000000;fill-opacity:1;fill-rule:nonzero;stroke:none"
             id="path909"
             inkscape:connector-curvature="0" /></g><g
           id="g911"
           transform="translate(553.8368,414.2484)"><path
             d="m 0,0 c 0,0.108 -0.072,0.358 -0.395,0.358 -0.108,0 -0.144,-0.036 -0.539,-0.43 l -2.514,-2.766 c -0.323,0.503 -1.975,3.195 -5.961,3.195 -8.009,0 -16.091,-7.936 -16.091,-16.269 0,-5.925 4.238,-9.841 9.733,-9.841 3.125,0 5.855,1.438 7.758,3.089 3.341,2.945 3.95,6.213 3.95,6.32 0,0.359 -0.359,0.359 -0.43,0.359 -0.216,0 -0.395,-0.072 -0.467,-0.359 -0.323,-1.041 -1.15,-3.591 -3.628,-5.673 -2.478,-2.011 -4.741,-2.622 -6.608,-2.622 -3.233,0 -7.039,1.867 -7.039,7.47 0,2.047 0.755,7.864 4.345,12.067 2.191,2.55 5.567,4.345 8.763,4.345 3.664,0 5.783,-2.766 5.783,-6.931 0,-1.437 -0.108,-1.473 -0.108,-1.831 0,-0.359 0.395,-0.359 0.539,-0.359 0.467,0 0.467,0.072 0.647,0.717 l 2.263,9.159"
             style="fill:#000000;fill-opacity:1;fill-rule:nonzero;stroke:none"
             id="path913"
             inkscape:connector-curvature="0" /></g><g
           id="g915"
           transform="translate(587.4346,543.8569)"><path
             d="m 0,0 c -2.155,0 -2.298,2.766 -2.298,3.375 0,1.725 1.042,5.639 1.653,7.147 1.113,2.658 2.98,4.167 4.453,4.167 2.334,0 2.838,-2.909 2.838,-3.161 C 6.646,11.312 4.669,3.447 4.562,3.303 4.025,2.298 2.014,0 0.001,0 m 9.948,15.085 c 0,0.144 -0.108,0.358 -0.359,0.358 -0.394,0 -1.831,-1.436 -2.442,-2.478 -0.789,1.941 -2.191,2.514 -3.339,2.514 -4.237,0 -8.656,-5.314 -8.656,-10.522 0,-3.52 2.12,-5.747 4.741,-5.747 1.545,0 2.945,0.863 4.239,2.155 C 3.81,0.109 2.624,-4.74 2.516,-5.063 2.229,-6.069 1.943,-6.213 -0.07,-6.249 c -0.466,0 -0.825,0 -0.825,-0.717 0,-0.036 0,-0.395 0.467,-0.395 1.148,0 2.406,0.108 3.591,0.108 1.222,0 2.514,-0.108 3.7,-0.108 0.178,0 0.645,0 0.645,0.719 0,0.394 -0.359,0.394 -0.933,0.394 -1.725,0 -1.725,0.252 -1.725,0.575 0,0.252 0.072,0.467 0.144,0.791 L 9.95,15.087 Z"
             style="fill:#000000;fill-opacity:1;fill-rule:nonzero;stroke:none"
             id="path917"
             inkscape:connector-curvature="0" /></g><path
           d="m 209.526,209.317 h 12.966 v 1.113 h -12.966 z"
           style="fill:#000000;fill-opacity:1;fill-rule:nonzero;stroke:none"
           id="path919"
           inkscape:connector-curvature="0" /><g
           id="g921"
           transform="translate(211.8855,200.4447)"><path
             d="m 0,0 c 0.252,0.97 1.22,1.977 1.867,2.514 1.256,1.114 2.298,1.366 2.909,1.366 1.436,0 2.298,-1.258 2.298,-3.377 0,-2.119 -1.186,-6.248 -1.831,-7.614 -1.222,-2.514 -2.945,-3.698 -4.275,-3.698 -2.37,0 -2.837,2.981 -2.837,3.197 0,0.07 0,0.142 0.108,0.573 L 0,0 m -6.322,-15.586 c -0.287,-1.222 -0.359,-1.473 -1.939,-1.473 -0.431,0 -0.827,0 -0.827,-0.681 0,-0.287 0.18,-0.431 0.467,-0.431 0.97,0 2.011,0.108 3.017,0.108 1.186,0 2.406,-0.108 3.556,-0.108 0.178,0 0.645,0 0.645,0.719 0,0.394 -0.359,0.394 -0.861,0.394 -1.797,0 -1.797,0.252 -1.797,0.575 0,0.431 1.509,6.286 1.761,7.183 0.466,-1.041 1.472,-2.298 3.303,-2.298 4.167,0 8.656,5.244 8.656,10.523 C 9.659,2.3 7.612,4.67 4.882,4.67 3.085,4.67 1.362,3.378 0.177,1.978 -0.182,3.917 -1.728,4.67 -3.056,4.67 c -1.652,0 -2.334,-1.4 -2.658,-2.047 -0.647,-1.22 -1.112,-3.375 -1.112,-3.483 0,-0.359 0.358,-0.359 0.43,-0.359 0.359,0 0.395,0.036 0.611,0.827 0.611,2.548 1.33,4.273 2.622,4.273 0.611,0 1.114,-0.287 1.114,-1.653 0,-0.825 -0.108,-1.22 -0.252,-1.831 l -4.023,-15.981 z"
             style="fill:#000000;fill-opacity:1;fill-rule:nonzero;stroke:none"
             id="path923"
             inkscape:connector-curvature="0" /></g><g
           id="g925"
           transform="translate(437.8942,51.1972)"><path
             d="M 0,0 H 4.058 C 2.874,-5.314 2.55,-6.859 2.55,-9.266 c 0,-0.537 0,-1.508 0.288,-2.73 0.359,-1.58 0.755,-1.795 1.292,-1.795 0.719,0 1.473,0.647 1.473,1.366 0,0.216 0,0.286 -0.216,0.789 -1.042,2.586 -1.042,4.92 -1.042,5.927 0,1.903 0.252,3.842 0.647,5.709 h 4.094 c 0.467,0 1.761,0 1.761,1.222 0,0.863 -0.755,0.863 -1.437,0.863 H -2.621 c -0.791,0 -2.155,0 -3.734,-1.689 -1.258,-1.4 -2.191,-3.052 -2.191,-3.231 0,-0.036 0,-0.359 0.43,-0.359 0.288,0 0.359,0.144 0.575,0.431 1.759,2.764 3.844,2.764 4.561,2.764 h 2.047 C -2.081,-4.344 -4.02,-8.69 -5.53,-11.958 c -0.287,-0.537 -0.287,-0.609 -0.287,-0.861 0,-0.683 0.575,-0.97 1.042,-0.97 1.078,0 1.364,1.006 1.795,2.334 0.503,1.653 0.503,1.723 0.97,3.52 l 2.011,7.936"
             style="fill:#000000;fill-opacity:1;fill-rule:nonzero;stroke:none"
             id="path927"
             inkscape:connector-curvature="0" /></g><g
           id="g929"
           transform="translate(302.2948,16.1582)"><path
             d="m 0,0 c 0.288,0.647 0.288,1.509 0.288,1.977 v 18.136 c 0,0.467 0,1.33 -0.287,1.975 H 4.095 C 3.629,21.515 3.629,20.796 3.629,20.257 V 1.977 c 0,-0.359 0,-1.33 0.286,-1.977 H 0.001 m 4.883,20.149 c 0,0.719 0,1.939 2.155,1.939 2.586,0 3.772,-0.969 3.772,-5.458 0,-5.136 -1.905,-5.567 -4.131,-5.567 H 4.885 v 9.086 z m 5.927,-8.727 c 1.148,1.508 1.256,3.77 1.256,5.208 0,1.903 -0.18,3.806 -1.112,5.134 1.975,-0.466 4.777,-1.544 4.777,-5.17 0,-2.514 -1.617,-4.347 -4.92,-5.172 z M 4.884,9.805 c 0.144,0 0.898,0 0.97,-0.036 h 1.22 c 7.291,0 9.913,3.413 9.913,6.825 0,5.098 -4.597,6.752 -9.23,6.752 H -2.73 c -0.645,0 -1.22,0 -1.22,-0.647 0,-0.611 0.681,-0.611 0.969,-0.611 1.869,0 2.013,-0.287 2.013,-2.047 V 2.049 c 0,-1.761 -0.144,-2.048 -1.977,-2.048 -0.359,0 -1.005,0 -1.005,-0.609 0,-0.647 0.575,-0.647 1.22,-0.647 h 9.625 c 0.647,0 1.186,0 1.186,0.647 0,0.609 -0.611,0.609 -1.006,0.609 -2.047,0 -2.191,0.288 -2.191,2.048 z"
             style="fill:#000000;fill-opacity:1;fill-rule:nonzero;stroke:none"
             id="path931"
             inkscape:connector-curvature="0" /></g><g
           id="g933"
           transform="translate(328.0668,45.6432)"><path
             d="m 0,0 c 0,0.677 -0.05,0.702 -0.753,0.702 -1.603,-1.58 -3.884,-1.605 -4.912,-1.605 v -0.902 c 0.602,0 2.256,0 3.634,0.702 v -12.783 c 0,-0.827 0,-1.153 -2.506,-1.153 h -0.952 v -0.902 c 0.45,0.025 3.533,0.1 4.461,0.1 0.777,0 3.934,-0.075 4.486,-0.1 v 0.902 H 2.506 C 0,-15.039 0,-14.712 0,-13.886 V 0"
             style="fill:#000000;fill-opacity:1;fill-rule:nonzero;stroke:none"
             id="path935"
             inkscape:connector-curvature="0" /></g><g
           id="g937"
           transform="translate(509.3133,29.7022)"><path
             d="M 0,0 H -155.906"
             style="fill:none;stroke:#231f20;stroke-width:1.5;stroke-linecap:butt;stroke-linejoin:miter;stroke-miterlimit:10;stroke-dasharray:none;stroke-opacity:1"
             id="path939"
             inkscape:connector-curvature="0" /></g><g
           id="g941"
           transform="translate(356.5669,33.8682)"><path
             d="M 0,0 -1.77,-4.166 0,-8.332 -9.876,-4.166 Z"
             style="fill:#231f20;fill-opacity:1;fill-rule:nonzero;stroke:none"
             id="path943"
             inkscape:connector-curvature="0" /></g><g
           id="g945"
           transform="translate(525.2948,16.1592)"><path
             d="m 0,0 c 0.288,0.647 0.288,1.509 0.288,1.977 v 18.136 c 0,0.467 0,1.33 -0.287,1.975 H 4.095 C 3.629,21.515 3.629,20.796 3.629,20.257 V 1.977 c 0,-0.359 0,-1.33 0.286,-1.977 H 0.001 m 4.883,20.149 c 0,0.719 0,1.939 2.155,1.939 2.586,0 3.772,-0.969 3.772,-5.458 0,-5.136 -1.905,-5.567 -4.131,-5.567 H 4.885 v 9.086 z m 5.927,-8.727 c 1.148,1.508 1.256,3.77 1.256,5.208 0,1.903 -0.18,3.806 -1.112,5.134 1.975,-0.466 4.777,-1.544 4.777,-5.17 0,-2.514 -1.617,-4.347 -4.92,-5.172 z M 4.884,9.805 c 0.144,0 0.898,0 0.97,-0.036 h 1.22 c 7.291,0 9.913,3.413 9.913,6.825 0,5.098 -4.597,6.752 -9.23,6.752 H -2.73 c -0.645,0 -1.22,0 -1.22,-0.647 0,-0.611 0.681,-0.611 0.969,-0.611 1.869,0 2.013,-0.287 2.013,-2.047 V 2.049 c 0,-1.761 -0.144,-2.048 -1.977,-2.048 -0.359,0 -1.005,0 -1.005,-0.609 0,-0.647 0.575,-0.647 1.22,-0.647 h 9.625 c 0.647,0 1.186,0 1.186,0.647 0,0.609 -0.611,0.609 -1.006,0.609 -2.047,0 -2.191,0.288 -2.191,2.048 z"
             style="fill:#000000;fill-opacity:1;fill-rule:nonzero;stroke:none"
             id="path947"
             inkscape:connector-curvature="0" /></g><g
           id="g949"
           transform="translate(555.3278,34.2642)"><path
             d="m 0,0 h -0.853 c -0.075,-0.55 -0.325,-2.03 -0.652,-2.28 -0.2,-0.152 -2.13,-0.152 -2.481,-0.152 h -4.611 c 2.631,2.331 3.508,3.033 5.013,4.211 C -1.729,3.259 0,4.812 0,7.193 c 0,3.033 -2.658,4.888 -5.866,4.888 -3.108,0 -5.212,-2.181 -5.212,-4.486 0,-1.278 1.077,-1.405 1.328,-1.405 0.602,0 1.328,0.427 1.328,1.33 0,0.45 -0.175,1.328 -1.48,1.328 0.778,1.78 2.481,2.331 3.659,2.331 2.506,0 3.811,-1.956 3.811,-3.986 0,-2.18 -1.555,-3.909 -2.356,-4.812 l -6.041,-5.964 c -0.25,-0.227 -0.25,-0.277 -0.25,-0.978 H -0.754 L -0.001,0"
             style="fill:#000000;fill-opacity:1;fill-rule:nonzero;stroke:none"
             id="path951"
             inkscape:connector-curvature="0" /></g><g
           id="g953"
           transform="translate(283.9222,264.5151)"><path
             d="M 4.3664494,4.5411074 -42.138,-42.138"
             style="fill:#2b1100;stroke:#231f20;stroke-width:1.70078735;stroke-linecap:butt;stroke-linejoin:miter;stroke-miterlimit:10;stroke-dasharray:1.70078735,6.80314939;stroke-dashoffset:0.6803151;stroke-opacity:1"
             id="path955"
             inkscape:connector-curvature="0"
             sodipodi:nodetypes="cc" /></g><g
           id="g957"
           transform="translate(241.1516,226.9815)"><path
             d="M -1.3787808,1.8339088 1.0510898,-4.1859101 7.0709087,-6.6157807 -7.1694885,-12.406489 Z"
             style="fill:#231f20;fill-opacity:1;fill-rule:nonzero;stroke:none;stroke-width:0.9147175;stroke-miterlimit:10;stroke-dasharray:none"
             id="path959"
             inkscape:connector-curvature="0" /></g><g
           id="g961"
           transform="translate(586.447,567.0399)"><path
             d="M 0,0 -294.798,-294.798"
             style="fill:none;stroke:#231f20;stroke-width:1;stroke-linecap:round;stroke-linejoin:miter;stroke-miterlimit:10;stroke-dasharray:none;stroke-opacity:1"
             id="path963"
             inkscape:connector-curvature="0" /></g></g><path
         d="m 93.535584,544.31556 -77.9179,10e-5"
         style="fill:#2b1100;stroke:#231f20;stroke-width:1.70078731;stroke-linecap:butt;stroke-linejoin:miter;stroke-miterlimit:10;stroke-dasharray:1.70078735, 6.80314939;stroke-dashoffset:0.68031508;stroke-opacity:1"
         id="path955-3"
         inkscape:connector-curvature="0"
         sodipodi:nodetypes="cc" /></g></g></svg>